<svg xmlns="http://www.w3.org/2000/svg">
    <symbol id="arrow-left" viewBox='0 0 32 32' >
        <path d="m17.6 20.98 3.94-3.94 6.42-6.42c1.36-1.34 3.68-.38 3.68 1.54v23.68c0 1.92-2.32 2.88-3.68 1.52L17.6 27c-1.66-1.64-1.66-4.36 0-6.02Z" fill="#fff"/>
    </symbol>

    <symbol id="arrow-right" viewBox="0 0 48 48">
        <path d="m30.4 20.98-3.94-3.94-6.42-6.42c-1.36-1.34-3.68-.38-3.68 1.54v23.68c0 1.92 2.32 2.88 3.68 1.52L30.4 27c1.66-1.64 1.66-4.36 0-6.02Z" fill="#fff"/>
    </symbol>

    <symbol id='instagram' viewBox="0 0 30 30">
        <g clip-path="url(#a)">
            <path d="M0 14.4C0 7.612 0 4.218 2.109 2.109S7.612 0 14.4 0h1.2c6.788 0 10.182 0 12.291 2.109S30 7.612 30 14.4v1.2c0 6.788 0 10.182-2.109 12.291S22.388 30 15.6 30h-1.2c-6.788 0-10.182 0-12.291-2.109S0 22.388 0 15.6v-1.2Z" fill="#101114"/>
            <path fill-rule="evenodd" clip-rule="evenodd" d="M15 5c-2.716 0-3.056.011-4.123.06-1.064.049-1.792.218-2.428.465A4.898 4.898 0 0 0 6.678 6.68a4.905 4.905 0 0 0-1.153 1.77c-.246.636-.416 1.364-.465 2.429C5.012 11.944 5 12.283 5 15c0 2.717.011 3.056.06 4.123.049 1.064.218 1.792.465 2.428.251.666.644 1.271 1.154 1.771.5.509 1.103.902 1.77 1.153.636.247 1.364.416 2.428.465 1.067.049 1.407.06 4.123.06s3.056-.011 4.123-.06c1.064-.049 1.792-.218 2.428-.465a4.898 4.898 0 0 0 1.771-1.154c.509-.5.902-1.103 1.153-1.77.247-.636.416-1.364.465-2.428.049-1.067.06-1.407.06-4.123s-.011-3.056-.06-4.123c-.049-1.064-.218-1.792-.465-2.428a4.903 4.903 0 0 0-1.154-1.771 4.905 4.905 0 0 0-1.77-1.153c-.636-.246-1.364-.416-2.429-.465C18.056 5.012 17.717 5 15 5Zm0 1.802c2.67 0 2.987.01 4.041.058.975.045 1.504.207 1.857.345.467.18.8.398 1.15.747.35.35.567.683.747 1.15.138.353.3.882.345 1.857.048 1.054.058 1.371.058 4.041 0 2.67-.01 2.987-.058 4.041-.045.975-.207 1.504-.345 1.857-.16.434-.415.827-.747 1.15a3.094 3.094 0 0 1-1.15.747c-.353.138-.882.3-1.857.345-1.054.048-1.37.058-4.041.058-2.67 0-2.987-.01-4.041-.058-.975-.045-1.504-.207-1.857-.345a3.097 3.097 0 0 1-1.15-.747 3.099 3.099 0 0 1-.747-1.15c-.138-.353-.3-.882-.345-1.857-.048-1.054-.058-1.371-.058-4.041 0-2.67.01-2.987.058-4.041.045-.975.207-1.504.345-1.857.18-.467.398-.8.747-1.15a3.095 3.095 0 0 1 1.15-.747c.353-.138.882-.3 1.857-.345 1.054-.048 1.371-.058 4.041-.058Z" fill="#fff"/>
            <path fill-rule="evenodd" clip-rule="evenodd" d="M15.238 18.133c-.447 0-.889-.09-1.301-.263a3.397 3.397 0 0 1-1.103-.75 3.458 3.458 0 0 1-.737-1.12 3.504 3.504 0 0 1 .737-3.766c.315-.32.69-.575 1.103-.749a3.354 3.354 0 0 1 3.705.75c.638.647.996 1.526.996 2.442 0 .917-.358 1.796-.996 2.444a3.373 3.373 0 0 1-2.404 1.012Zm0-8.778c-1.39 0-2.721.56-3.704 1.559A5.366 5.366 0 0 0 10 14.677c0 1.412.552 2.766 1.534 3.764A5.196 5.196 0 0 0 15.238 20c1.39 0 2.722-.56 3.704-1.559a5.366 5.366 0 0 0 1.534-3.764 5.366 5.366 0 0 0-1.534-3.763 5.196 5.196 0 0 0-3.704-1.56ZM22 9.258c0 .334-.13.654-.363.89a1.228 1.228 0 0 1-1.75 0 1.269 1.269 0 0 1 0-1.78 1.228 1.228 0 0 1 1.75 0c.233.236.363.556.363.89Z" fill="#fff"/>
        </g>
        <defs>
            <clipPath id="a">
                <path fill="#fff" d="M0 0h30v30H0z"/>
            </clipPath>
        </defs>
    </symbol>

    <symbol id='telegram' viewBox="0 0 30 30">
        <g clip-path="url(#a)">
            <path d="M15 30c8.284 0 15-6.716 15-15 0-8.284-6.716-15-15-15C6.716 0 0 6.716 0 15c0 8.284 6.716 15 15 15Z" fill="url(#b)"/>
            <path fill-rule="evenodd" clip-rule="evenodd" d="M6.79 14.842c4.373-1.905 7.289-3.162 8.748-3.768 4.165-1.733 5.03-2.034 5.595-2.044.124-.002.402.029.581.175.152.123.194.289.214.406.02.116.044.382.025.59-.226 2.372-1.203 8.128-1.7 10.784-.21 1.125-.624 1.501-1.025 1.538-.87.08-1.532-.575-2.376-1.128-1.32-.866-2.066-1.404-3.348-2.249-1.48-.976-.52-1.512.324-2.389.22-.23 4.059-3.72 4.133-4.037.009-.04.018-.187-.07-.265-.088-.078-.217-.052-.31-.03-.133.03-2.242 1.424-6.328 4.182-.598.41-1.14.611-1.626.6-.536-.011-1.566-.302-2.332-.551-.94-.306-1.686-.467-1.621-.986.034-.27.406-.546 1.116-.828Z" fill="#fff"/>
        </g>
        <defs>
            <linearGradient id="b" x1="15" y1="0" x2="15" y2="29.777" gradientUnits="userSpaceOnUse">
                <stop stop-color="#101114"/>
                <stop offset="1" stop-color="#101114"/>
            </linearGradient>
            <clipPath id="a">
                <path fill="#fff" d="M0 0h30v30H0z"/>
            </clipPath>
        </defs>
    </symbol>

    <svg id='vk' viewBox="0 0 30 30">
        <g clip-path="url(#a)">
            <path d="M0 14.4C0 7.612 0 4.218 2.109 2.109S7.612 0 14.4 0h1.2c6.788 0 10.182 0 12.291 2.109S30 7.612 30 14.4v1.2c0 6.788 0 10.182-2.109 12.291S22.388 30 15.6 30h-1.2c-6.788 0-10.182 0-12.291-2.109S0 22.388 0 15.6v-1.2Z" fill="#101114"/>
            <path d="M15.91 21.6C8.94 21.6 4.966 16.87 4.8 9H8.29c.115 5.777 2.689 8.223 4.727 8.728V9h3.288v4.982c2.013-.214 4.128-2.485 4.842-4.982h3.287c-.548 3.078-2.841 5.348-4.472 6.281 1.63.757 4.243 2.737 5.237 6.319h-3.62c-.776-2.396-2.713-4.25-5.274-4.503V21.6h-.395Z" fill="#fff"/>
        </g>
        <defs>
            <clipPath id="a">
                <path fill="#101114" d="M0 0h30v30H0z"/>
            </clipPath>
        </defs>
    </svg>
</svg>